<mxfile host="app.diagrams.net" agent="Mozilla/5.0 (Windows NT 10.0; Win64; x64; rv:135.0) Gecko/20100101 Firefox/135.0" version="26.0.6">
  <diagram name="Page-1" id="p3MePknBcelEORn2URV9">
    <mxGraphModel dx="1440" dy="896" grid="1" gridSize="10" guides="1" tooltips="1" connect="1" arrows="1" fold="1" page="1" pageScale="1" pageWidth="827" pageHeight="1169" math="0" shadow="0">
      <root>
        <mxCell id="0" />
        <mxCell id="1" parent="0" />
        <mxCell id="D1cV1n5Gp3ANrmxUmuU1-2" value="Personal (7)" style="rounded=0;whiteSpace=wrap;html=1;labelBackgroundColor=none;fillColor=#EEEEEE;strokeColor=#FFFFFF;fontColor=#1A1A1A;" vertex="1" parent="1">
          <mxGeometry x="80" y="118" width="90" height="40" as="geometry" />
        </mxCell>
        <mxCell id="D1cV1n5Gp3ANrmxUmuU1-3" value="Lifestyle (53)" style="rounded=0;whiteSpace=wrap;html=1;labelBackgroundColor=none;fillColor=#EEEEEE;strokeColor=#FFFFFF;fontColor=#1A1A1A;" vertex="1" parent="1">
          <mxGeometry x="170" y="118" width="150" height="40" as="geometry" />
        </mxCell>
        <mxCell id="D1cV1n5Gp3ANrmxUmuU1-4" value="&lt;b&gt;Medical (405)&lt;/b&gt;" style="rounded=0;whiteSpace=wrap;html=1;labelBackgroundColor=none;fillColor=#EEEEEE;strokeColor=#FFFFFF;fontColor=#1A1A1A;" vertex="1" parent="1">
          <mxGeometry x="320" y="118" width="380" height="40" as="geometry" />
        </mxCell>
        <mxCell id="D1cV1n5Gp3ANrmxUmuU1-5" value="Measurements (164)" style="rounded=0;whiteSpace=wrap;html=1;labelBackgroundColor=none;fillColor=#EEEEEE;strokeColor=#FFFFFF;fontColor=#1A1A1A;" vertex="1" parent="1">
          <mxGeometry x="700" y="118" width="260" height="40" as="geometry" />
        </mxCell>
        <mxCell id="D1cV1n5Gp3ANrmxUmuU1-20" value="" style="shape=curlyBracket;whiteSpace=wrap;html=1;rounded=1;labelPosition=left;verticalLabelPosition=middle;align=right;verticalAlign=middle;rotation=90;size=0.5;strokeWidth=2;labelBackgroundColor=none;" vertex="1" parent="1">
          <mxGeometry x="489.71" y="-11.280000000000001" width="40.57" height="379.5" as="geometry" />
        </mxCell>
        <mxCell id="D1cV1n5Gp3ANrmxUmuU1-21" value="Allergies (6)" style="rounded=0;whiteSpace=wrap;html=1;labelBackgroundColor=none;fillColor=#EEEEEE;strokeColor=#FFFFFF;fontColor=#1A1A1A;" vertex="1" parent="1">
          <mxGeometry x="159.72" y="198" width="80" height="40" as="geometry" />
        </mxCell>
        <mxCell id="D1cV1n5Gp3ANrmxUmuU1-22" value="Current Medications (80)" style="rounded=0;whiteSpace=wrap;html=1;labelBackgroundColor=none;fillColor=#EEEEEE;strokeColor=#FFFFFF;fontColor=#1A1A1A;" vertex="1" parent="1">
          <mxGeometry x="239.72" y="198" width="180" height="40" as="geometry" />
        </mxCell>
        <mxCell id="D1cV1n5Gp3ANrmxUmuU1-23" value="Past Medical History (56)" style="rounded=0;whiteSpace=wrap;html=1;labelBackgroundColor=none;fillColor=#EEEEEE;strokeColor=#FFFFFF;fontColor=#1A1A1A;" vertex="1" parent="1">
          <mxGeometry x="420" y="198" width="150" height="40" as="geometry" />
        </mxCell>
        <mxCell id="D1cV1n5Gp3ANrmxUmuU1-24" value="Surgical History (9)" style="rounded=0;whiteSpace=wrap;html=1;labelBackgroundColor=none;fillColor=#EEEEEE;strokeColor=#FFFFFF;fontColor=#1A1A1A;" vertex="1" parent="1">
          <mxGeometry x="570" y="198" width="120" height="40" as="geometry" />
        </mxCell>
        <mxCell id="D1cV1n5Gp3ANrmxUmuU1-25" value="&lt;b&gt;Family History (231)&lt;/b&gt;" style="rounded=0;whiteSpace=wrap;html=1;labelBackgroundColor=none;fillColor=#EEEEEE;strokeColor=#FFFFFF;fontColor=#1A1A1A;" vertex="1" parent="1">
          <mxGeometry x="690" y="198" width="230" height="40" as="geometry" />
        </mxCell>
        <mxCell id="D1cV1n5Gp3ANrmxUmuU1-26" value="AD (5)" style="rounded=0;whiteSpace=wrap;html=1;labelBackgroundColor=none;fillColor=#EEEEEE;strokeColor=#FFFFFF;fontColor=#1A1A1A;" vertex="1" parent="1">
          <mxGeometry x="920" y="198" width="60" height="40" as="geometry" />
        </mxCell>
        <mxCell id="D1cV1n5Gp3ANrmxUmuU1-27" value="Comments (18)" style="rounded=0;whiteSpace=wrap;html=1;labelBackgroundColor=none;fillColor=#EEEEEE;strokeColor=#FFFFFF;fontColor=#1A1A1A;" vertex="1" parent="1">
          <mxGeometry x="980" y="198" width="100" height="40" as="geometry" />
        </mxCell>
        <mxCell id="D1cV1n5Gp3ANrmxUmuU1-28" value="" style="shape=curlyBracket;whiteSpace=wrap;html=1;rounded=1;labelPosition=left;verticalLabelPosition=middle;align=right;verticalAlign=middle;rotation=90;size=0.5;strokeWidth=2;labelBackgroundColor=none;" vertex="1" parent="1">
          <mxGeometry x="784.72" y="68" width="40.57" height="379.5" as="geometry" />
        </mxCell>
        <mxCell id="D1cV1n5Gp3ANrmxUmuU1-29" value="Father (33)" style="rounded=0;whiteSpace=wrap;html=1;fontStyle=1;labelBackgroundColor=none;fillColor=#EEEEEE;strokeColor=#FFFFFF;fontColor=#1A1A1A;" vertex="1" parent="1">
          <mxGeometry x="240" y="278" width="140" height="40" as="geometry" />
        </mxCell>
        <mxCell id="D1cV1n5Gp3ANrmxUmuU1-30" value="Mother (33)" style="rounded=0;whiteSpace=wrap;html=1;fontStyle=1;labelBackgroundColor=none;fillColor=#EEEEEE;strokeColor=#FFFFFF;fontColor=#1A1A1A;" vertex="1" parent="1">
          <mxGeometry x="380" y="278" width="140" height="40" as="geometry" />
        </mxCell>
        <mxCell id="D1cV1n5Gp3ANrmxUmuU1-31" value="Uncle (33)" style="rounded=0;whiteSpace=wrap;html=1;fontStyle=1;labelBackgroundColor=none;fillColor=#EEEEEE;strokeColor=#FFFFFF;fontColor=#1A1A1A;" vertex="1" parent="1">
          <mxGeometry x="520" y="278" width="140" height="40" as="geometry" />
        </mxCell>
        <mxCell id="D1cV1n5Gp3ANrmxUmuU1-32" value="Aunty (33)" style="rounded=0;whiteSpace=wrap;html=1;fontStyle=1;labelBackgroundColor=none;fillColor=#EEEEEE;strokeColor=#FFFFFF;fontColor=#1A1A1A;" vertex="1" parent="1">
          <mxGeometry x="660" y="278" width="140" height="40" as="geometry" />
        </mxCell>
        <mxCell id="D1cV1n5Gp3ANrmxUmuU1-33" value="Grandfather (33)" style="rounded=0;whiteSpace=wrap;html=1;fontStyle=1;labelBackgroundColor=none;fillColor=#EEEEEE;strokeColor=#FFFFFF;fontColor=#1A1A1A;" vertex="1" parent="1">
          <mxGeometry x="800" y="278" width="140" height="40" as="geometry" />
        </mxCell>
        <mxCell id="D1cV1n5Gp3ANrmxUmuU1-34" value="Grandmother (33)" style="rounded=0;whiteSpace=wrap;html=1;fontStyle=1;labelBackgroundColor=none;fillColor=#EEEEEE;strokeColor=#FFFFFF;fontColor=#1A1A1A;" vertex="1" parent="1">
          <mxGeometry x="940" y="278" width="140" height="40" as="geometry" />
        </mxCell>
        <mxCell id="D1cV1n5Gp3ANrmxUmuU1-35" value="Siblings/Others (33)" style="rounded=0;whiteSpace=wrap;html=1;fontStyle=1;labelBackgroundColor=none;fillColor=#EEEEEE;strokeColor=#FFFFFF;fontColor=#1A1A1A;" vertex="1" parent="1">
          <mxGeometry x="1080" y="278" width="140" height="40" as="geometry" />
        </mxCell>
        <mxCell id="D1cV1n5Gp3ANrmxUmuU1-36" value="&lt;b&gt;The Max Health dataset (629 features)&lt;/b&gt;" style="rounded=0;whiteSpace=wrap;html=1;labelBackgroundColor=none;fillColor=#EEEEEE;strokeColor=#FFFFFF;fontColor=#1A1A1A;" vertex="1" parent="1">
          <mxGeometry x="80" y="78" width="880" height="40" as="geometry" />
        </mxCell>
        <mxCell id="D1cV1n5Gp3ANrmxUmuU1-37" value="Father (33)" style="rounded=0;whiteSpace=wrap;html=1;fontStyle=1;labelBackgroundColor=none;fillColor=#EEEEEE;strokeColor=#FFFFFF;fontColor=#1A1A1A;" vertex="1" parent="1">
          <mxGeometry x="159.72" y="720" width="140" height="40" as="geometry" />
        </mxCell>
        <mxCell id="D1cV1n5Gp3ANrmxUmuU1-38" value="Mother (33)" style="rounded=0;whiteSpace=wrap;html=1;fontStyle=1;labelBackgroundColor=none;fillColor=#EEEEEE;strokeColor=#FFFFFF;fontColor=#1A1A1A;" vertex="1" parent="1">
          <mxGeometry x="299.72" y="720" width="140" height="40" as="geometry" />
        </mxCell>
        <mxCell id="D1cV1n5Gp3ANrmxUmuU1-39" value="Uncle (33)" style="rounded=0;whiteSpace=wrap;html=1;fontStyle=1;labelBackgroundColor=none;fillColor=#EEEEEE;strokeColor=#FFFFFF;fontColor=#1A1A1A;" vertex="1" parent="1">
          <mxGeometry x="439.72" y="720" width="140" height="40" as="geometry" />
        </mxCell>
        <mxCell id="D1cV1n5Gp3ANrmxUmuU1-40" value="Aunty (33)" style="rounded=0;whiteSpace=wrap;html=1;fontStyle=1;labelBackgroundColor=none;fillColor=#EEEEEE;strokeColor=#FFFFFF;fontColor=#1A1A1A;" vertex="1" parent="1">
          <mxGeometry x="579.72" y="720" width="140" height="40" as="geometry" />
        </mxCell>
        <mxCell id="D1cV1n5Gp3ANrmxUmuU1-41" value="Grandfather (33)" style="rounded=0;whiteSpace=wrap;html=1;fontStyle=1;labelBackgroundColor=none;fillColor=#EEEEEE;strokeColor=#FFFFFF;fontColor=#1A1A1A;" vertex="1" parent="1">
          <mxGeometry x="719.72" y="720" width="140" height="40" as="geometry" />
        </mxCell>
        <mxCell id="D1cV1n5Gp3ANrmxUmuU1-42" value="Grandmother (33)" style="rounded=0;whiteSpace=wrap;html=1;fontStyle=1;labelBackgroundColor=none;fillColor=#EEEEEE;strokeColor=#FFFFFF;fontColor=#1A1A1A;" vertex="1" parent="1">
          <mxGeometry x="859.72" y="720" width="140" height="40" as="geometry" />
        </mxCell>
        <mxCell id="D1cV1n5Gp3ANrmxUmuU1-43" value="Siblings/Others (33)" style="rounded=0;whiteSpace=wrap;html=1;fontStyle=1;labelBackgroundColor=none;fillColor=#EEEEEE;strokeColor=#FFFFFF;fontColor=#1A1A1A;" vertex="1" parent="1">
          <mxGeometry x="999.72" y="720" width="140" height="40" as="geometry" />
        </mxCell>
      </root>
    </mxGraphModel>
  </diagram>
</mxfile>
